<svg width="2829" height="2829" viewBox="0 0 2829 2829" fill="none" xmlns="http://www.w3.org/2000/svg">
<path d="M2033.34 2475.38C1936.1 2475.38 1847.69 2413.49 1812.33 2316.24C1812.33 2307.4 1812.33 2298.56 1803.49 2298.56H1016.67C1016.67 2307.4 1016.67 2316.24 1007.83 2316.24C981.309 2413.49 892.903 2475.38 795.656 2475.38C742.612 2475.38 707.25 2510.74 707.25 2563.78C707.25 2616.83 742.612 2652.19 795.656 2652.19H2033.34C2086.39 2652.19 2121.75 2616.83 2121.75 2563.78C2121.75 2510.74 2086.39 2475.38 2033.34 2475.38Z" fill="black"/>
<path d="M2386.97 265.219H442.031C291.741 265.219 176.812 380.147 176.812 530.438V1856.53C176.812 2006.82 291.741 2121.75 442.031 2121.75H1052.03H1768.12H2386.97C2537.26 2121.75 2652.19 2006.82 2652.19 1856.53V530.438C2652.19 380.147 2537.26 265.219 2386.97 265.219ZM1299.57 1379.14C1334.93 1414.5 1334.93 1458.7 1308.41 1494.07C1220.01 1608.99 1078.56 1679.72 928.266 1679.72C663.047 1679.72 442.031 1458.7 442.031 1193.48C442.031 928.266 663.047 707.25 928.266 707.25C1078.56 707.25 1211.17 777.975 1308.41 892.903C1334.93 928.266 1334.93 981.309 1299.57 1007.83L1113.92 1193.48L1299.57 1379.14Z" fill="black"/>
<path fill-rule="evenodd" clip-rule="evenodd" d="M1610.22 1085.55L1560.48 1104.7L1608.87 1122.4L1660.03 1103.77L1610.22 1085.55Z" fill="#EBEBEB" stroke="black" stroke-width="2.08677" stroke-miterlimit="1.5" stroke-linecap="square" stroke-linejoin="round"/>
<path fill-rule="evenodd" clip-rule="evenodd" d="M1463.43 1175.67L1660.04 1103.78V1219.92L1463.43 1291.81V1175.67Z" fill="white" stroke="black" stroke-width="1.93704" stroke-miterlimit="1.5" stroke-linecap="square" stroke-linejoin="round"/>
<path fill-rule="evenodd" clip-rule="evenodd" d="M1463.48 1082.83L1561.47 1047L1609.95 1064.34L1511.97 1100.17L1463.48 1082.83Z" fill="#F2F2F2" stroke="#D1E3F2" stroke-width="1.61294" stroke-miterlimit="1.5" stroke-linecap="square" stroke-linejoin="round"/>
<path fill-rule="evenodd" clip-rule="evenodd" d="M1512.1 1100.32L1563.22 1081.63V1312.88L1512.1 1331.57V1100.32Z" fill="#D7D7D7" stroke="#D1E3F2" stroke-width="4.57948" stroke-miterlimit="1.5" stroke-linecap="square" stroke-linejoin="round"/>
<path fill-rule="evenodd" clip-rule="evenodd" d="M1512.12 1100.41L1463.39 1082.96V1314.2L1512.12 1331.66V1100.41Z" fill="#F2F2F2" stroke="black" stroke-width="4.54348" stroke-miterlimit="1.5" stroke-linecap="square" stroke-linejoin="round"/>
<path fill-rule="evenodd" clip-rule="evenodd" d="M1512.12 1273.2L1463.39 1255.38V1314.2L1512.12 1332.02V1273.2Z" fill="white" stroke="white" stroke-width="2.82366" stroke-miterlimit="1.5" stroke-linecap="square" stroke-linejoin="round"/>
<path fill-rule="evenodd" clip-rule="evenodd" d="M1463.4 1175.69L1415 1157.99V1274.12L1463.4 1291.82V1175.69Z" fill="#F2F2F2" stroke="#D1E3F2" stroke-width="3.95389" stroke-miterlimit="1.5" stroke-linecap="square" stroke-linejoin="round"/>
<path fill-rule="evenodd" clip-rule="evenodd" d="M1563.21 1081.46L1609.97 1064.37V1295.61L1563.21 1312.71V1081.46Z" fill="#D7D7D7" stroke="black" stroke-width="4.57019" stroke-miterlimit="1.5" stroke-linecap="square" stroke-linejoin="round"/>
<path fill-rule="evenodd" clip-rule="evenodd" d="M1463.44 1175.67L1512.13 1157.87V1274.01L1463.44 1291.81V1175.67Z" fill="#D7D7D7" stroke="black" stroke-width="3.93855" stroke-miterlimit="1.5" stroke-linecap="square" stroke-linejoin="round"/>
<path d="M1415.15 1215.89L1463.45 1233.36L1610.19 1180.25M1512.86 1157.59L1609.86 1122.13" stroke="black" stroke-width="3.71167" stroke-miterlimit="1.5" stroke-linecap="square" stroke-linejoin="round"/>
<path d="M1610.19 1180.25L1659.91 1162.21" stroke="black" stroke-width="3.71167" stroke-miterlimit="1.5" stroke-linecap="square" stroke-linejoin="round"/>
<path fill-rule="evenodd" clip-rule="evenodd" d="M1415.03 1157.97L1463.41 1140.35L1511.79 1158.06L1463.41 1175.67L1415.03 1157.97Z" fill="#F2F2F2" stroke="black" stroke-width="2.12053" stroke-miterlimit="1.5" stroke-linecap="square" stroke-linejoin="round"/>
<path d="M1532.67 1132.48C1537.95 1129.77 1541.93 1122.86 1541.56 1117.04C1541.18 1111.23 1536.6 1108.72 1531.32 1111.44C1526.04 1114.15 1522.06 1121.06 1522.43 1126.88C1522.81 1132.69 1527.39 1135.2 1532.67 1132.48Z" fill="black"/>
<path d="M1514.84 1064.23L1562.82 1081.44" stroke="black" stroke-width="3.71167" stroke-miterlimit="1.5" stroke-linecap="square" stroke-linejoin="round"/>
<path fill-rule="evenodd" clip-rule="evenodd" d="M1563.22 1197.26L1512.1 1215.96L1512.12 1332L1563.22 1312.88V1197.26Z" fill="white" stroke="black" stroke-width="3.8575" stroke-miterlimit="1.5" stroke-linecap="square" stroke-linejoin="round"/>
<path fill-rule="evenodd" clip-rule="evenodd" d="M1609.97 1180.22L1563.21 1197.32L1563.21 1312.87L1609.97 1295.61V1180.22Z" fill="white" stroke="black" stroke-width="3.98172" stroke-miterlimit="1.5" stroke-linecap="square" stroke-linejoin="round"/>
<path d="M1595.61 1283.13C1600.81 1280.46 1604.75 1273.87 1604.4 1268.41C1604.05 1262.96 1599.56 1260.71 1594.35 1263.38C1589.15 1266.05 1585.22 1272.64 1585.57 1278.1C1585.92 1283.55 1590.41 1285.8 1595.61 1283.13Z" fill="black"/>
<path d="M1512.22 1274.13L1610.22 1238.38" stroke="black" stroke-width="3.71167" stroke-miterlimit="1.5" stroke-linecap="square" stroke-linejoin="round"/>
<path d="M1839.14 1266.1L1796.89 1223.83C1791.69 1218.48 1788.69 1211.37 1788.51 1203.92C1788.92 1199.84 1790.06 1195.87 1791.87 1192.2L1791.88 1192.18L1791.89 1192.17L1831.03 1110.75L1839.14 1266.1Z" fill="white" stroke="black" stroke-width="7"/>
<path d="M1925.35 1055.03C1930.03 1052.64 1935.24 1051.48 1940.5 1051.66L1940.56 1051.66H1940.62C1943.65 1051.66 1947.2 1052.72 1950.62 1054.39C1954.01 1056.06 1956.96 1058.19 1958.76 1060L1958.77 1060.01L2001.07 1102.31L1847.21 1094.1L1925.32 1055.05L1925.34 1055.04L1925.35 1055.03Z" fill="white" stroke="black" stroke-width="7"/>
<path d="M2015.88 1285.07V1329.66H1902.7L1857.06 1283.98L1931.29 1258.09L2015.88 1285.07Z" fill="white" stroke="black" stroke-width="7"/>
<path d="M1934.4 1191.28L2011.73 1279.12H1852.2L1845.66 1272.58C1841.98 1268.88 1840.09 1266.54 1838.96 1263.54C1837.79 1260.44 1837.31 1256.3 1837.31 1248.78V1104.72L1934.4 1191.28Z" fill="white" stroke="black" stroke-width="7"/>
<path d="M1983.73 1100.39C1988.86 1100.39 1992.88 1100.63 1996.57 1101.76C1999.94 1102.8 2003.22 1104.63 2006.8 1108.06L2007.52 1108.76L2007.53 1108.77L2066.55 1167.72V1279.01H2020.88L1842.26 1100.39H1983.73Z" fill="white" stroke="black" stroke-width="7"/>
<mask id="path-26-inside-1_205_954" fill="white">
<path fill-rule="evenodd" clip-rule="evenodd" d="M1845 1276.92C1837.44 1269.35 1835.62 1261.97 1835.62 1248.78V1098.78L1833.81 1096.89V1248.76C1833.81 1261.97 1833.81 1265.6 1845.08 1276.92L1850.72 1282.54L1845 1276.92Z"/>
</mask>
<path fill-rule="evenodd" clip-rule="evenodd" d="M1845 1276.92C1837.44 1269.35 1835.62 1261.97 1835.62 1248.78V1098.78L1833.81 1096.89V1248.76C1833.81 1261.97 1833.81 1265.6 1845.08 1276.92L1850.72 1282.54L1845 1276.92Z" fill="white"/>
<path d="M1845 1276.92L1840.05 1281.87L1840.07 1281.89L1840.09 1281.91L1845 1276.92ZM1835.62 1098.78H1842.62V1095.96L1840.67 1093.93L1835.62 1098.78ZM1833.81 1096.89L1838.86 1092.04L1826.81 1079.49V1096.89H1833.81ZM1845.08 1276.92L1840.11 1281.85L1840.12 1281.86L1840.14 1281.87L1845.08 1276.92ZM1850.72 1282.54L1845.81 1287.53L1855.66 1277.58L1850.72 1282.54ZM1845 1276.92L1849.95 1271.97C1846.85 1268.87 1845.17 1266.08 1844.15 1262.85C1843.07 1259.44 1842.62 1255.14 1842.62 1248.78H1835.62H1828.62C1828.62 1255.6 1829.07 1261.6 1830.8 1267.06C1832.58 1272.72 1835.59 1277.4 1840.05 1281.87L1845 1276.92ZM1835.62 1248.78H1842.62V1098.78H1835.62H1828.62V1248.78H1835.62ZM1835.62 1098.78L1840.67 1093.93L1838.86 1092.04L1833.81 1096.89L1828.76 1101.74L1830.57 1103.63L1835.62 1098.78ZM1833.81 1096.89H1826.81V1248.76H1833.81H1840.81V1096.89H1833.81ZM1833.81 1248.76H1826.81C1826.81 1254.99 1826.72 1260.54 1828.62 1265.88C1830.57 1271.4 1834.35 1276.06 1840.11 1281.85L1845.08 1276.92L1850.04 1271.98C1844.54 1266.45 1842.67 1263.63 1841.81 1261.21C1840.89 1258.6 1840.81 1255.73 1840.81 1248.76H1833.81ZM1845.08 1276.92L1840.14 1281.87L1845.78 1287.5L1850.72 1282.54L1855.66 1277.58L1850.02 1271.96L1845.08 1276.92ZM1850.72 1282.54L1855.63 1277.55L1849.91 1271.92L1845 1276.92L1840.09 1281.91L1845.81 1287.53L1850.72 1282.54Z" fill="black" mask="url(#path-26-inside-1_205_954)"/>
<mask id="path-28-inside-2_205_954" fill="white">
<path fill-rule="evenodd" clip-rule="evenodd" d="M2068.14 1164.4V1280.65H2017.49L2019.38 1282.51H2070.03V1166.29L2068.14 1164.4Z"/>
</mask>
<path fill-rule="evenodd" clip-rule="evenodd" d="M2068.14 1164.4V1280.65H2017.49L2019.38 1282.51H2070.03V1166.29L2068.14 1164.4Z" fill="black"/>
<path d="M2068.14 1164.4L2073.08 1159.45L2061.14 1147.53V1164.4H2068.14ZM2068.14 1280.65V1287.65H2075.14V1280.65H2068.14ZM2017.49 1280.65V1273.65H2000.46L2012.57 1285.62L2017.49 1280.65ZM2019.38 1282.51L2014.46 1287.49L2016.5 1289.51H2019.38V1282.51ZM2070.03 1282.51V1289.51H2077.03V1282.51H2070.03ZM2070.03 1166.29H2077.03V1163.39L2074.97 1161.34L2070.03 1166.29ZM2068.14 1164.4H2061.14V1280.65H2068.14H2075.14V1164.4H2068.14ZM2068.14 1280.65V1273.65H2017.49V1280.65V1287.65H2068.14V1280.65ZM2017.49 1280.65L2012.57 1285.62L2014.46 1287.49L2019.38 1282.51L2024.3 1277.54L2022.41 1275.67L2017.49 1280.65ZM2019.38 1282.51V1289.51H2070.03V1282.51V1275.51H2019.38V1282.51ZM2070.03 1282.51H2077.03V1166.29H2070.03H2063.03V1282.51H2070.03ZM2070.03 1166.29L2074.97 1161.34L2073.08 1159.45L2068.14 1164.4L2063.19 1169.36L2065.09 1171.25L2070.03 1166.29Z" fill="black" mask="url(#path-28-inside-2_205_954)"/>
<mask id="path-30-inside-3_205_954" fill="white">
<path fill-rule="evenodd" clip-rule="evenodd" d="M2010 1106.29C2000.7 1096.99 1993.08 1096.89 1981.87 1096.89H1833.81L1835.7 1098.78H1981.92C1987.49 1098.78 2001.63 1097.85 2010.02 1106.34L2010 1106.29Z"/>
</mask>
<path fill-rule="evenodd" clip-rule="evenodd" d="M2010 1106.29C2000.7 1096.99 1993.08 1096.89 1981.87 1096.89H1833.81L1835.7 1098.78H1981.92C1987.49 1098.78 2001.63 1097.85 2010.02 1106.34L2010 1106.29Z" fill="black"/>
<path d="M2010 1106.29L2016.26 1103.16L2015.75 1102.15L2014.95 1101.34L2010 1106.29ZM1833.81 1096.89V1089.89H1816.93L1828.85 1101.83L1833.81 1096.89ZM1835.7 1098.78L1830.74 1103.73L1832.79 1105.78H1835.7V1098.78ZM2010.02 1106.34L2005.04 1111.27L2016.28 1103.21L2010.02 1106.34ZM2010 1106.29L2014.95 1101.34C2009.55 1095.95 2004.27 1092.89 1998.45 1091.34C1992.95 1089.87 1987.3 1089.89 1981.87 1089.89V1096.89V1103.89C1987.65 1103.89 1991.42 1103.96 1994.85 1104.87C1997.97 1105.7 2001.15 1107.34 2005.05 1111.24L2010 1106.29ZM1981.87 1096.89V1089.89H1833.81V1096.89V1103.89H1981.87V1096.89ZM1833.81 1096.89L1828.85 1101.83L1830.74 1103.73L1835.7 1098.78L1840.65 1093.84L1838.76 1091.94L1833.81 1096.89ZM1835.7 1098.78V1105.78H1981.92V1098.78V1091.78H1835.7V1098.78ZM1981.92 1098.78V1105.78C1985.08 1105.78 1989.24 1105.57 1993.83 1106.29C1998.38 1107.01 2002.33 1108.52 2005.04 1111.27L2010.02 1106.34L2015 1101.42C2009.32 1095.68 2002 1093.4 1996 1092.46C1990.02 1091.52 1984.33 1091.78 1981.92 1091.78V1098.78ZM2010.02 1106.34L2016.28 1103.21L2016.26 1103.16L2010 1106.29L2003.74 1109.43L2003.76 1109.48L2010.02 1106.34Z" fill="black" mask="url(#path-30-inside-3_205_954)"/>
<g clip-path="url(#clip0_205_954)">
<rect x="2195" y="1055" width="288.567" height="285.019" rx="25" fill="white"/>
<path d="M2195 1066C2195 1059.92 2199.93 1055 2206 1055H2472.57C2478.64 1055 2483.57 1059.92 2483.57 1066V1329.02C2483.57 1335.09 2478.64 1340.02 2472.57 1340.02H2206C2199.93 1340.02 2195 1335.09 2195 1329.02V1066Z" fill="white"/>
<path d="M2338.3 1085.61H2225.99V1309.4H2338.29V1142.05H2395.43V1309.4H2452.57V1085.61H2338.3Z" fill="black"/>
</g>
<defs>
<clipPath id="clip0_205_954">
<rect x="2195" y="1055" width="288.567" height="285.019" rx="25" fill="white"/>
</clipPath>
</defs>
</svg>
