<svg width="512" height="512" viewBox="0 0 512 512" fill="none" xmlns="http://www.w3.org/2000/svg">
<path d="M469.333 256H469.141M384.191 256H383.999M224.255 160H224.042M42.666 256C42.666 362.027 126.783 448 230.527 448C283.157 448 330.73 425.877 364.842 390.251C378.495 375.957 385.322 368.832 383.786 357.163C382.229 345.493 372.33 339.648 352.533 327.957L336.362 318.421C289.365 290.688 265.855 276.821 265.855 256C265.855 235.179 289.365 221.291 336.362 193.579L352.533 184.021C372.33 172.352 382.229 166.528 383.786 154.837C385.343 143.168 378.517 136.021 364.842 121.749C330.73 86.1227 283.157 64 230.527 64C126.783 64 42.666 149.973 42.666 256Z" stroke="white" stroke-width="32" stroke-linecap="round" stroke-linejoin="round"/>
</svg>
