<svg width="69" height="69" viewBox="0 0 69 69" fill="none" xmlns="http://www.w3.org/2000/svg">
<path fill-rule="evenodd" clip-rule="evenodd" d="M13.876 54.1796L2.239 42.5366C0.838 41.0966 0.037 39.1766 0 37.1666C0.104 36.0756 0.406 35.0126 0.891 34.0306L11.655 11.6416L13.876 54.1796Z" fill="#01579B"/>
<path fill-rule="evenodd" clip-rule="evenodd" d="M53.7283 13.8869L42.0853 2.24386C41.0743 1.22686 38.9553 0.00486224 37.1613 0.00486224C35.7643 -0.0431378 34.3783 0.264862 33.1343 0.901862L11.6543 11.6409L53.7283 13.8869Z" fill="#40C4FF"/>
<path fill-rule="evenodd" clip-rule="evenodd" d="M27.7588 68.0614H55.9688V55.9674L34.9228 49.2544L15.6758 55.9674L27.7588 68.0614Z" fill="#40C4FF"/>
<path fill-rule="evenodd" clip-rule="evenodd" d="M11.6543 47.9125C11.6543 51.5245 12.1053 52.3915 13.8933 54.1855L15.6993 55.9915H55.9913L36.2703 33.5905L11.6543 11.6475V47.9125Z" fill="#29B6F6"/>
<path fill-rule="evenodd" clip-rule="evenodd" d="M47.4553 11.6416H11.6543L55.9793 55.9676H68.0683V28.2086L53.7283 13.8876C51.7173 11.8646 49.9303 11.6416 47.4553 11.6416Z" fill="#01579B"/>
<path fill-rule="evenodd" clip-rule="evenodd" d="M14.3273 54.6306C12.5213 52.8246 12.0873 51.0606 12.0873 47.9126V12.0926L11.6543 11.6416V47.9066C11.6543 51.0606 11.6543 51.9276 14.3453 54.6306L15.6933 55.9736L14.3273 54.6306Z" fill="white"/>
<path fill-rule="evenodd" clip-rule="evenodd" d="M67.6116 27.7632V55.5212H55.5176L55.9686 55.9672H68.0636V28.2142L67.6116 27.7632Z" fill="#263238"/>
<path fill-rule="evenodd" clip-rule="evenodd" d="M53.7283 13.8871C51.5073 11.6661 49.6893 11.6411 47.0103 11.6411H11.6543L12.1053 12.0931H47.0223C48.3533 12.0931 51.7293 11.8701 53.7343 13.8991L53.7283 13.8871Z" fill="white"/>
</svg>
